<?xml version="1.0" encoding="UTF-8"?>
<svg width="64px" height="64px" viewBox="0 0 64 64" version="1.1" xmlns="http://www.w3.org/2000/svg" xmlns:xlink="http://www.w3.org/1999/xlink" style="background: #000000;">
    <!-- Generator: Sketch 49.3 (51167) - http://www.bohemiancoding.com/sketch -->
    <title>waterfall</title>
    <desc>Created with Sketch.</desc>
    <defs></defs>
    <g id="waterfall" stroke="none" stroke-width="1" fill="none" fill-rule="evenodd">
        <g id="Group" transform="translate(-14.000000, 5.000000)">
            <g id="12-Water-Polo-Flat@600x600" transform="translate(66.262482, 65.763195) rotate(90.000000) translate(-66.262482, -65.763195) translate(23.466476, 50.855920)">
                <path d="M85.5917832,4.56970043 L85.5755502,4.57560331 C85.5563659,4.1697802 85.3837066,3.77428713 85.0442909,3.49832742 C84.4082554,2.983301 83.4785516,3.08512571 82.969428,3.71820976 C81.6766969,5.31789067 79.9869971,6.19889575 78.2131812,6.19889575 C76.4393652,6.19889575 74.7496654,5.31789067 73.4569343,3.71820976 C71.5945752,1.41165877 69.0902777,0.14253923 66.407418,0.14253923 C63.7245583,0.14253923 61.2202608,1.41165877 59.3579016,3.71820976 C58.0651706,5.31789067 56.3754707,6.20037147 54.6016548,6.20037147 C52.8278389,6.20037147 51.138139,5.31789067 49.8454079,3.71820976 C47.9830488,1.41165877 45.4787513,0.14253923 42.7958916,0.14253923 C40.1130319,0.14253923 37.6087344,1.41165877 35.7463752,3.71820976 C34.4536442,5.31789067 32.7639443,6.20037147 30.9901284,6.20037147 C29.2163125,6.20037147 27.5266126,5.31789067 26.2338815,3.71820976 C24.3715224,1.41165877 21.8672249,0.14253923 19.1843652,0.14253923 C16.5015055,0.14253923 13.997208,1.41165877 12.1348488,3.71820976 C10.8421178,5.31789067 9.15241792,6.20037147 7.378602,6.20037147 C5.60478608,6.20037147 3.91508622,5.31789067 2.62235515,3.71820976 C2.11175589,3.08512571 1.18352776,2.983301 0.547492268,3.49832742 C0.208076576,3.77428713 0.0354172896,4.1697802 0.0162329244,4.57560331 L0,4.56970043 L0,25.229786 L0.014757204,25.229786 C-0.0029514408,25.5810075 0.0900189444,25.9396075 0.329085649,26.2347516 C2.19144479,28.5398269 4.69574231,29.8104221 7.378602,29.8104221 C10.0614617,29.8104221 12.5657592,28.5398269 14.4281183,26.2347516 C15.7208494,24.6350707 17.4105493,23.7540656 19.1843652,23.7540656 C20.9581811,23.7540656 22.647881,24.6350707 23.940612,26.2347516 C25.8029712,28.5398269 28.3072687,29.8104221 30.9901284,29.8104221 C33.6729881,29.8104221 36.1772856,28.5398269 38.0396447,26.2347516 C39.3323758,24.6350707 41.0220757,23.7540656 42.7958916,23.7540656 C44.5697075,23.7540656 46.2594074,24.6350707 47.5521384,26.2347516 C49.4144976,28.5398269 51.9187951,29.8104221 54.6016548,29.8104221 C57.2845145,29.8104221 59.788812,28.5398269 61.6511711,26.2347516 C62.9439022,24.6350707 64.6336021,23.7540656 66.407418,23.7540656 C68.1812339,23.7540656 69.8709338,24.6350707 71.1636648,26.2347516 C73.026024,28.5398269 75.5303215,29.8104221 78.2131812,29.8104221 C80.8960409,29.8104221 83.4003384,28.5398269 85.2626975,26.2347516 C85.5017642,25.9396075 85.5947346,25.5810075 85.577026,25.229786 L85.5917832,25.229786 L85.5917832,4.56970043" id="Shape" fill="#67B9CC"></path>
                <path d="M82.969428,24.3782953 C81.6766969,25.9779763 79.9869971,26.8589813 78.2131812,26.8589813 C76.4393652,26.8589813 74.7496654,25.9779763 73.4569343,24.3782953 C71.5945752,22.0717444 69.0902777,20.8026248 66.407418,20.8026248 C63.7245583,20.8026248 61.2202608,22.0717444 59.3579016,24.3782953 C58.0651706,25.9779763 56.3754707,26.8604571 54.6016548,26.8604571 C52.8278389,26.8604571 51.138139,25.9779763 49.8454079,24.3782953 C47.9830488,22.0717444 45.4787513,20.8026248 42.7958916,20.8026248 C40.1130319,20.8026248 37.6087344,22.0717444 35.7463752,24.3782953 C34.4536442,25.9779763 32.7639443,26.8604571 30.9901284,26.8604571 C29.2163125,26.8604571 27.5266126,25.9779763 26.2338815,24.3782953 C24.3715224,22.0717444 21.8672249,20.8026248 19.1843652,20.8026248 C16.5015055,20.8026248 13.997208,22.0717444 12.1348488,24.3782953 C10.8421178,25.9779763 9.15241792,26.8604571 7.378602,26.8604571 C5.60478608,26.8604571 3.91508622,25.9779763 2.62235515,24.3782953 C2.11175589,23.7452113 1.18352776,23.6448623 0.547492268,24.158413 C-0.0855917832,24.670488 -0.18446505,25.6001918 0.329085649,26.2347516 C2.19144479,28.5398269 4.69574231,29.8104221 7.378602,29.8104221 C10.0614617,29.8104221 12.5657592,28.5398269 14.4281183,26.2347516 C15.7208494,24.6350707 17.4105493,23.7540656 19.1843652,23.7540656 C20.9581811,23.7540656 22.647881,24.6350707 23.940612,26.2347516 C25.8029712,28.5398269 28.3072687,29.8104221 30.9901284,29.8104221 C33.6729881,29.8104221 36.1772856,28.5398269 38.0396447,26.2347516 C39.3323758,24.6350707 41.0220757,23.7540656 42.7958916,23.7540656 C44.5697075,23.7540656 46.2594074,24.6350707 47.5521384,26.2347516 C49.4144976,28.5398269 51.9187951,29.8104221 54.6016548,29.8104221 C57.2845145,29.8104221 59.788812,28.5398269 61.6511711,26.2347516 C62.9439022,24.6350707 64.6336021,23.7540656 66.407418,23.7540656 C68.1812339,23.7540656 69.8709338,24.6350707 71.1636648,26.2347516 C73.026024,28.5398269 75.5303215,29.8104221 78.2131812,29.8104221 C80.8960409,29.8104221 83.4003384,28.5398269 85.2626975,26.2347516 C85.7762482,25.6001918 85.677375,24.670488 85.0442909,24.158413 C84.4082554,23.6448623 83.4785516,23.7452113 82.969428,24.3782953" id="Shape" fill="#0096E6"></path>
                <path d="M82.969428,14.0482526 C81.6766969,15.6479335 79.9869971,16.5289385 78.2131812,16.5289385 C76.4393652,16.5289385 74.7496654,15.6479335 73.4569343,14.0482526 C71.5945752,11.7417016 69.0902777,10.472582 66.407418,10.472582 C63.7245583,10.472582 61.2202608,11.7417016 59.3579016,14.0482526 C58.0651706,15.6479335 56.3754707,16.5289385 54.6016548,16.5289385 C52.8278389,16.5289385 51.138139,15.6479335 49.8454079,14.0482526 C47.9830488,11.7417016 45.4787513,10.472582 42.7958916,10.472582 C40.1130319,10.472582 37.6087344,11.7417016 35.7463752,14.0482526 C34.4536442,15.6479335 32.7639443,16.5289385 30.9901284,16.5289385 C29.2163125,16.5289385 27.5266126,15.6479335 26.2338815,14.0482526 C24.3715224,11.7417016 21.8672249,10.472582 19.1843652,10.472582 C16.5015055,10.472582 13.997208,11.7417016 12.1348488,14.0482526 C10.8421178,15.6479335 9.15241792,16.5289385 7.378602,16.5289385 C5.60478608,16.5289385 3.91508622,15.6479335 2.62235515,14.0482526 C2.11175589,13.4151685 1.18352776,13.3133438 0.547492268,13.8298459 C-0.0855917832,14.3404452 -0.18446505,15.270149 0.329085649,15.9047088 C2.19144479,18.2097841 4.69574231,19.4818551 7.378602,19.4818551 C10.0614617,19.4818551 12.5657592,18.2097841 14.4281183,15.9047088 C15.7208494,14.3050279 17.4105493,13.4240228 19.1843652,13.4240228 C20.9581811,13.4240228 22.647881,14.3050279 23.940612,15.9047088 C25.8029712,18.2097841 28.3072687,19.4818551 30.9901284,19.4818551 C33.6729881,19.4818551 36.1772856,18.2097841 38.0396447,15.9047088 C39.3323758,14.3050279 41.0220757,13.4240228 42.7958916,13.4240228 C44.5697075,13.4240228 46.2594074,14.3050279 47.5521384,15.9047088 C49.4144976,18.2097841 51.9187951,19.4818551 54.6016548,19.4818551 C57.2845145,19.4818551 59.788812,18.2097841 61.6511711,15.9047088 C62.9439022,14.3050279 64.6336021,13.4240228 66.407418,13.4240228 C68.1812339,13.4240228 69.8709338,14.3050279 71.1636648,15.9047088 C73.026024,18.2097841 75.5303215,19.4803793 78.2131812,19.4803793 C80.8960409,19.4803793 83.4003384,18.2097841 85.2626975,15.9047088 C85.7762482,15.270149 85.677375,14.3404452 85.0442909,13.8298459 C84.4082554,13.3133438 83.4785516,13.4151685 82.969428,14.0482526" id="Shape" fill="#0096E6"></path>
                <path d="M7.378602,9.15181227 C10.0614617,9.15181227 12.5657592,7.87974128 14.4281183,5.57466602 C15.7208494,3.97498511 17.4105493,3.09398003 19.1843652,3.09398003 C20.9581811,3.09398003 22.647881,3.97498511 23.940612,5.57466602 C25.8029712,7.87974128 28.3072687,9.15181227 30.9901284,9.15181227 C33.6729881,9.15181227 36.1772856,7.87974128 38.0396447,5.57466602 C39.3323758,3.97498511 41.0220757,3.09398003 42.7958916,3.09398003 C44.5697075,3.09398003 46.2594074,3.97498511 47.5521384,5.57466602 C49.4144976,7.87974128 51.9187951,9.15181227 54.6016548,9.15181227 C57.2845145,9.15181227 59.788812,7.87974128 61.6511711,5.57466602 C62.9439022,3.97498511 64.6336021,3.09398003 66.407418,3.09398003 C68.1812339,3.09398003 69.8709338,3.97498511 71.1636648,5.57466602 C73.026024,7.87974128 75.5303215,9.15033655 78.2131812,9.15033655 C80.8960409,9.15033655 83.4003384,7.87974128 85.2626975,5.57466602 C85.7762482,4.94010625 85.677375,4.0104024 85.0442909,3.49832742 C84.4082554,2.983301 83.4785516,3.08512571 82.969428,3.71820976 C81.6766969,5.31789067 79.9869971,6.19889575 78.2131812,6.19889575 C76.4393652,6.19889575 74.7496654,5.31789067 73.4569343,3.71820976 C71.5945752,1.41165877 69.0902777,0.14253923 66.407418,0.14253923 C63.7245583,0.14253923 61.2202608,1.41165877 59.3579016,3.71820976 C58.0651706,5.31789067 56.3754707,6.20037147 54.6016548,6.20037147 C52.8278389,6.20037147 51.138139,5.31789067 49.8454079,3.71820976 C47.9830488,1.41165877 45.4787513,0.14253923 42.7958916,0.14253923 C40.1130319,0.14253923 37.6087344,1.41165877 35.7463752,3.71820976 C34.4536442,5.31789067 32.7639443,6.20037147 30.9901284,6.20037147 C29.2163125,6.20037147 27.5266126,5.31789067 26.2338815,3.71820976 C24.3715224,1.41165877 21.8672249,0.14253923 19.1843652,0.14253923 C16.5015055,0.14253923 13.997208,1.41165877 12.1348488,3.71820976 C10.8421178,5.31789067 9.15241792,6.20037147 7.378602,6.20037147 C5.60478608,6.20037147 3.91508622,5.31789067 2.62235515,3.71820976 C2.11175589,3.08512571 1.18352776,2.983301 0.547492268,3.49832742 C-0.0855917832,4.0104024 -0.18446505,4.94010625 0.329085649,5.57466602 C2.19144479,7.87974128 4.69574231,9.15181227 7.378602,9.15181227" id="Shape" fill="#0096E6"></path>
            </g>
            <g id="12-Water-Polo-Flat@600x600" transform="translate(85.092725, 68.188302) rotate(90.000000) translate(-85.092725, -68.188302) translate(42.296719, 53.281027)">
                <path d="M85.5917832,4.56970043 L85.5755502,4.57560331 C85.5563659,4.1697802 85.3837066,3.77428713 85.0442909,3.49832742 C84.4082554,2.983301 83.4785516,3.08512571 82.969428,3.71820976 C81.6766969,5.31789067 79.9869971,6.19889575 78.2131812,6.19889575 C76.4393652,6.19889575 74.7496654,5.31789067 73.4569343,3.71820976 C71.5945752,1.41165877 69.0902777,0.14253923 66.407418,0.14253923 C63.7245583,0.14253923 61.2202608,1.41165877 59.3579016,3.71820976 C58.0651706,5.31789067 56.3754707,6.20037147 54.6016548,6.20037147 C52.8278389,6.20037147 51.138139,5.31789067 49.8454079,3.71820976 C47.9830488,1.41165877 45.4787513,0.14253923 42.7958916,0.14253923 C40.1130319,0.14253923 37.6087344,1.41165877 35.7463752,3.71820976 C34.4536442,5.31789067 32.7639443,6.20037147 30.9901284,6.20037147 C29.2163125,6.20037147 27.5266126,5.31789067 26.2338815,3.71820976 C24.3715224,1.41165877 21.8672249,0.14253923 19.1843652,0.14253923 C16.5015055,0.14253923 13.997208,1.41165877 12.1348488,3.71820976 C10.8421178,5.31789067 9.15241792,6.20037147 7.378602,6.20037147 C5.60478608,6.20037147 3.91508622,5.31789067 2.62235515,3.71820976 C2.11175589,3.08512571 1.18352776,2.983301 0.547492268,3.49832742 C0.208076576,3.77428713 0.0354172896,4.1697802 0.0162329244,4.57560331 L0,4.56970043 L0,25.229786 L0.014757204,25.229786 C-0.0029514408,25.5810075 0.0900189444,25.9396075 0.329085649,26.2347516 C2.19144479,28.5398269 4.69574231,29.8104221 7.378602,29.8104221 C10.0614617,29.8104221 12.5657592,28.5398269 14.4281183,26.2347516 C15.7208494,24.6350707 17.4105493,23.7540656 19.1843652,23.7540656 C20.9581811,23.7540656 22.647881,24.6350707 23.940612,26.2347516 C25.8029712,28.5398269 28.3072687,29.8104221 30.9901284,29.8104221 C33.6729881,29.8104221 36.1772856,28.5398269 38.0396447,26.2347516 C39.3323758,24.6350707 41.0220757,23.7540656 42.7958916,23.7540656 C44.5697075,23.7540656 46.2594074,24.6350707 47.5521384,26.2347516 C49.4144976,28.5398269 51.9187951,29.8104221 54.6016548,29.8104221 C57.2845145,29.8104221 59.788812,28.5398269 61.6511711,26.2347516 C62.9439022,24.6350707 64.6336021,23.7540656 66.407418,23.7540656 C68.1812339,23.7540656 69.8709338,24.6350707 71.1636648,26.2347516 C73.026024,28.5398269 75.5303215,29.8104221 78.2131812,29.8104221 C80.8960409,29.8104221 83.4003384,28.5398269 85.2626975,26.2347516 C85.5017642,25.9396075 85.5947346,25.5810075 85.577026,25.229786 L85.5917832,25.229786 L85.5917832,4.56970043" id="Shape" fill="#67B9CC"></path>
                <path d="M82.969428,24.3782953 C81.6766969,25.9779763 79.9869971,26.8589813 78.2131812,26.8589813 C76.4393652,26.8589813 74.7496654,25.9779763 73.4569343,24.3782953 C71.5945752,22.0717444 69.0902777,20.8026248 66.407418,20.8026248 C63.7245583,20.8026248 61.2202608,22.0717444 59.3579016,24.3782953 C58.0651706,25.9779763 56.3754707,26.8604571 54.6016548,26.8604571 C52.8278389,26.8604571 51.138139,25.9779763 49.8454079,24.3782953 C47.9830488,22.0717444 45.4787513,20.8026248 42.7958916,20.8026248 C40.1130319,20.8026248 37.6087344,22.0717444 35.7463752,24.3782953 C34.4536442,25.9779763 32.7639443,26.8604571 30.9901284,26.8604571 C29.2163125,26.8604571 27.5266126,25.9779763 26.2338815,24.3782953 C24.3715224,22.0717444 21.8672249,20.8026248 19.1843652,20.8026248 C16.5015055,20.8026248 13.997208,22.0717444 12.1348488,24.3782953 C10.8421178,25.9779763 9.15241792,26.8604571 7.378602,26.8604571 C5.60478608,26.8604571 3.91508622,25.9779763 2.62235515,24.3782953 C2.11175589,23.7452113 1.18352776,23.6448623 0.547492268,24.158413 C-0.0855917832,24.670488 -0.18446505,25.6001918 0.329085649,26.2347516 C2.19144479,28.5398269 4.69574231,29.8104221 7.378602,29.8104221 C10.0614617,29.8104221 12.5657592,28.5398269 14.4281183,26.2347516 C15.7208494,24.6350707 17.4105493,23.7540656 19.1843652,23.7540656 C20.9581811,23.7540656 22.647881,24.6350707 23.940612,26.2347516 C25.8029712,28.5398269 28.3072687,29.8104221 30.9901284,29.8104221 C33.6729881,29.8104221 36.1772856,28.5398269 38.0396447,26.2347516 C39.3323758,24.6350707 41.0220757,23.7540656 42.7958916,23.7540656 C44.5697075,23.7540656 46.2594074,24.6350707 47.5521384,26.2347516 C49.4144976,28.5398269 51.9187951,29.8104221 54.6016548,29.8104221 C57.2845145,29.8104221 59.788812,28.5398269 61.6511711,26.2347516 C62.9439022,24.6350707 64.6336021,23.7540656 66.407418,23.7540656 C68.1812339,23.7540656 69.8709338,24.6350707 71.1636648,26.2347516 C73.026024,28.5398269 75.5303215,29.8104221 78.2131812,29.8104221 C80.8960409,29.8104221 83.4003384,28.5398269 85.2626975,26.2347516 C85.7762482,25.6001918 85.677375,24.670488 85.0442909,24.158413 C84.4082554,23.6448623 83.4785516,23.7452113 82.969428,24.3782953" id="Shape" fill="#0096E6"></path>
            </g>
            <g id="12-Water-Polo-Flat@600x600" transform="translate(44.721826, 65.763195) rotate(90.000000) translate(-44.721826, -65.763195) translate(1.925820, 50.855920)">
                <path d="M85.5917832,4.56970043 L85.5755502,4.57560331 C85.5563659,4.1697802 85.3837066,3.77428713 85.0442909,3.49832742 C84.4082554,2.983301 83.4785516,3.08512571 82.969428,3.71820976 C81.6766969,5.31789067 79.9869971,6.19889575 78.2131812,6.19889575 C76.4393652,6.19889575 74.7496654,5.31789067 73.4569343,3.71820976 C71.5945752,1.41165877 69.0902777,0.14253923 66.407418,0.14253923 C63.7245583,0.14253923 61.2202608,1.41165877 59.3579016,3.71820976 C58.0651706,5.31789067 56.3754707,6.20037147 54.6016548,6.20037147 C52.8278389,6.20037147 51.138139,5.31789067 49.8454079,3.71820976 C47.9830488,1.41165877 45.4787513,0.14253923 42.7958916,0.14253923 C40.1130319,0.14253923 37.6087344,1.41165877 35.7463752,3.71820976 C34.4536442,5.31789067 32.7639443,6.20037147 30.9901284,6.20037147 C29.2163125,6.20037147 27.5266126,5.31789067 26.2338815,3.71820976 C24.3715224,1.41165877 21.8672249,0.14253923 19.1843652,0.14253923 C16.5015055,0.14253923 13.997208,1.41165877 12.1348488,3.71820976 C10.8421178,5.31789067 9.15241792,6.20037147 7.378602,6.20037147 C5.60478608,6.20037147 3.91508622,5.31789067 2.62235515,3.71820976 C2.11175589,3.08512571 1.18352776,2.983301 0.547492268,3.49832742 C0.208076576,3.77428713 0.0354172896,4.1697802 0.0162329244,4.57560331 L0,4.56970043 L0,25.229786 L0.014757204,25.229786 C-0.0029514408,25.5810075 0.0900189444,25.9396075 0.329085649,26.2347516 C2.19144479,28.5398269 4.69574231,29.8104221 7.378602,29.8104221 C10.0614617,29.8104221 12.5657592,28.5398269 14.4281183,26.2347516 C15.7208494,24.6350707 17.4105493,23.7540656 19.1843652,23.7540656 C20.9581811,23.7540656 22.647881,24.6350707 23.940612,26.2347516 C25.8029712,28.5398269 28.3072687,29.8104221 30.9901284,29.8104221 C33.6729881,29.8104221 36.1772856,28.5398269 38.0396447,26.2347516 C39.3323758,24.6350707 41.0220757,23.7540656 42.7958916,23.7540656 C44.5697075,23.7540656 46.2594074,24.6350707 47.5521384,26.2347516 C49.4144976,28.5398269 51.9187951,29.8104221 54.6016548,29.8104221 C57.2845145,29.8104221 59.788812,28.5398269 61.6511711,26.2347516 C62.9439022,24.6350707 64.6336021,23.7540656 66.407418,23.7540656 C68.1812339,23.7540656 69.8709338,24.6350707 71.1636648,26.2347516 C73.026024,28.5398269 75.5303215,29.8104221 78.2131812,29.8104221 C80.8960409,29.8104221 83.4003384,28.5398269 85.2626975,26.2347516 C85.5017642,25.9396075 85.5947346,25.5810075 85.577026,25.229786 L85.5917832,25.229786 L85.5917832,4.56970043" id="Shape" fill="#67B9CC"></path>
                <path d="M82.969428,24.3782953 C81.6766969,25.9779763 79.9869971,26.8589813 78.2131812,26.8589813 C76.4393652,26.8589813 74.7496654,25.9779763 73.4569343,24.3782953 C71.5945752,22.0717444 69.0902777,20.8026248 66.407418,20.8026248 C63.7245583,20.8026248 61.2202608,22.0717444 59.3579016,24.3782953 C58.0651706,25.9779763 56.3754707,26.8604571 54.6016548,26.8604571 C52.8278389,26.8604571 51.138139,25.9779763 49.8454079,24.3782953 C47.9830488,22.0717444 45.4787513,20.8026248 42.7958916,20.8026248 C40.1130319,20.8026248 37.6087344,22.0717444 35.7463752,24.3782953 C34.4536442,25.9779763 32.7639443,26.8604571 30.9901284,26.8604571 C29.2163125,26.8604571 27.5266126,25.9779763 26.2338815,24.3782953 C24.3715224,22.0717444 21.8672249,20.8026248 19.1843652,20.8026248 C16.5015055,20.8026248 13.997208,22.0717444 12.1348488,24.3782953 C10.8421178,25.9779763 9.15241792,26.8604571 7.378602,26.8604571 C5.60478608,26.8604571 3.91508622,25.9779763 2.62235515,24.3782953 C2.11175589,23.7452113 1.18352776,23.6448623 0.547492268,24.158413 C-0.0855917832,24.670488 -0.18446505,25.6001918 0.329085649,26.2347516 C2.19144479,28.5398269 4.69574231,29.8104221 7.378602,29.8104221 C10.0614617,29.8104221 12.5657592,28.5398269 14.4281183,26.2347516 C15.7208494,24.6350707 17.4105493,23.7540656 19.1843652,23.7540656 C20.9581811,23.7540656 22.647881,24.6350707 23.940612,26.2347516 C25.8029712,28.5398269 28.3072687,29.8104221 30.9901284,29.8104221 C33.6729881,29.8104221 36.1772856,28.5398269 38.0396447,26.2347516 C39.3323758,24.6350707 41.0220757,23.7540656 42.7958916,23.7540656 C44.5697075,23.7540656 46.2594074,24.6350707 47.5521384,26.2347516 C49.4144976,28.5398269 51.9187951,29.8104221 54.6016548,29.8104221 C57.2845145,29.8104221 59.788812,28.5398269 61.6511711,26.2347516 C62.9439022,24.6350707 64.6336021,23.7540656 66.407418,23.7540656 C68.1812339,23.7540656 69.8709338,24.6350707 71.1636648,26.2347516 C73.026024,28.5398269 75.5303215,29.8104221 78.2131812,29.8104221 C80.8960409,29.8104221 83.4003384,28.5398269 85.2626975,26.2347516 C85.7762482,25.6001918 85.677375,24.670488 85.0442909,24.158413 C84.4082554,23.6448623 83.4785516,23.7452113 82.969428,24.3782953" id="Shape" fill="#0096E6"></path>
                <path d="M82.969428,14.0482526 C81.6766969,15.6479335 79.9869971,16.5289385 78.2131812,16.5289385 C76.4393652,16.5289385 74.7496654,15.6479335 73.4569343,14.0482526 C71.5945752,11.7417016 69.0902777,10.472582 66.407418,10.472582 C63.7245583,10.472582 61.2202608,11.7417016 59.3579016,14.0482526 C58.0651706,15.6479335 56.3754707,16.5289385 54.6016548,16.5289385 C52.8278389,16.5289385 51.138139,15.6479335 49.8454079,14.0482526 C47.9830488,11.7417016 45.4787513,10.472582 42.7958916,10.472582 C40.1130319,10.472582 37.6087344,11.7417016 35.7463752,14.0482526 C34.4536442,15.6479335 32.7639443,16.5289385 30.9901284,16.5289385 C29.2163125,16.5289385 27.5266126,15.6479335 26.2338815,14.0482526 C24.3715224,11.7417016 21.8672249,10.472582 19.1843652,10.472582 C16.5015055,10.472582 13.997208,11.7417016 12.1348488,14.0482526 C10.8421178,15.6479335 9.15241792,16.5289385 7.378602,16.5289385 C5.60478608,16.5289385 3.91508622,15.6479335 2.62235515,14.0482526 C2.11175589,13.4151685 1.18352776,13.3133438 0.547492268,13.8298459 C-0.0855917832,14.3404452 -0.18446505,15.270149 0.329085649,15.9047088 C2.19144479,18.2097841 4.69574231,19.4818551 7.378602,19.4818551 C10.0614617,19.4818551 12.5657592,18.2097841 14.4281183,15.9047088 C15.7208494,14.3050279 17.4105493,13.4240228 19.1843652,13.4240228 C20.9581811,13.4240228 22.647881,14.3050279 23.940612,15.9047088 C25.8029712,18.2097841 28.3072687,19.4818551 30.9901284,19.4818551 C33.6729881,19.4818551 36.1772856,18.2097841 38.0396447,15.9047088 C39.3323758,14.3050279 41.0220757,13.4240228 42.7958916,13.4240228 C44.5697075,13.4240228 46.2594074,14.3050279 47.5521384,15.9047088 C49.4144976,18.2097841 51.9187951,19.4818551 54.6016548,19.4818551 C57.2845145,19.4818551 59.788812,18.2097841 61.6511711,15.9047088 C62.9439022,14.3050279 64.6336021,13.4240228 66.407418,13.4240228 C68.1812339,13.4240228 69.8709338,14.3050279 71.1636648,15.9047088 C73.026024,18.2097841 75.5303215,19.4803793 78.2131812,19.4803793 C80.8960409,19.4803793 83.4003384,18.2097841 85.2626975,15.9047088 C85.7762482,15.270149 85.677375,14.3404452 85.0442909,13.8298459 C84.4082554,13.3133438 83.4785516,13.4151685 82.969428,14.0482526" id="Shape" fill="#0096E6"></path>
                <path d="M7.378602,9.15181227 C10.0614617,9.15181227 12.5657592,7.87974128 14.4281183,5.57466602 C15.7208494,3.97498511 17.4105493,3.09398003 19.1843652,3.09398003 C20.9581811,3.09398003 22.647881,3.97498511 23.940612,5.57466602 C25.8029712,7.87974128 28.3072687,9.15181227 30.9901284,9.15181227 C33.6729881,9.15181227 36.1772856,7.87974128 38.0396447,5.57466602 C39.3323758,3.97498511 41.0220757,3.09398003 42.7958916,3.09398003 C44.5697075,3.09398003 46.2594074,3.97498511 47.5521384,5.57466602 C49.4144976,7.87974128 51.9187951,9.15181227 54.6016548,9.15181227 C57.2845145,9.15181227 59.788812,7.87974128 61.6511711,5.57466602 C62.9439022,3.97498511 64.6336021,3.09398003 66.407418,3.09398003 C68.1812339,3.09398003 69.8709338,3.97498511 71.1636648,5.57466602 C73.026024,7.87974128 75.5303215,9.15033655 78.2131812,9.15033655 C80.8960409,9.15033655 83.4003384,7.87974128 85.2626975,5.57466602 C85.7762482,4.94010625 85.677375,4.0104024 85.0442909,3.49832742 C84.4082554,2.983301 83.4785516,3.08512571 82.969428,3.71820976 C81.6766969,5.31789067 79.9869971,6.19889575 78.2131812,6.19889575 C76.4393652,6.19889575 74.7496654,5.31789067 73.4569343,3.71820976 C71.5945752,1.41165877 69.0902777,0.14253923 66.407418,0.14253923 C63.7245583,0.14253923 61.2202608,1.41165877 59.3579016,3.71820976 C58.0651706,5.31789067 56.3754707,6.20037147 54.6016548,6.20037147 C52.8278389,6.20037147 51.138139,5.31789067 49.8454079,3.71820976 C47.9830488,1.41165877 45.4787513,0.14253923 42.7958916,0.14253923 C40.1130319,0.14253923 37.6087344,1.41165877 35.7463752,3.71820976 C34.4536442,5.31789067 32.7639443,6.20037147 30.9901284,6.20037147 C29.2163125,6.20037147 27.5266126,5.31789067 26.2338815,3.71820976 C24.3715224,1.41165877 21.8672249,0.14253923 19.1843652,0.14253923 C16.5015055,0.14253923 13.997208,1.41165877 12.1348488,3.71820976 C10.8421178,5.31789067 9.15241792,6.20037147 7.378602,6.20037147 C5.60478608,6.20037147 3.91508622,5.31789067 2.62235515,3.71820976 C2.11175589,3.08512571 1.18352776,2.983301 0.547492268,3.49832742 C-0.0855917832,4.0104024 -0.18446505,4.94010625 0.329085649,5.57466602 C2.19144479,7.87974128 4.69574231,9.15181227 7.378602,9.15181227" id="Shape" fill="#0096E6"></path>
            </g>
            <g id="12-Water-Polo-Flat@600x600" transform="translate(34.450785, 65.763195) rotate(90.000000) translate(-34.450785, -65.763195) translate(-8.345221, 50.855920)">
                <path d="M85.5917832,4.56970043 L85.5755502,4.57560331 C85.5563659,4.1697802 85.3837066,3.77428713 85.0442909,3.49832742 C84.4082554,2.983301 83.4785516,3.08512571 82.969428,3.71820976 C81.6766969,5.31789067 79.9869971,6.19889575 78.2131812,6.19889575 C76.4393652,6.19889575 74.7496654,5.31789067 73.4569343,3.71820976 C71.5945752,1.41165877 69.0902777,0.14253923 66.407418,0.14253923 C63.7245583,0.14253923 61.2202608,1.41165877 59.3579016,3.71820976 C58.0651706,5.31789067 56.3754707,6.20037147 54.6016548,6.20037147 C52.8278389,6.20037147 51.138139,5.31789067 49.8454079,3.71820976 C47.9830488,1.41165877 45.4787513,0.14253923 42.7958916,0.14253923 C40.1130319,0.14253923 37.6087344,1.41165877 35.7463752,3.71820976 C34.4536442,5.31789067 32.7639443,6.20037147 30.9901284,6.20037147 C29.2163125,6.20037147 27.5266126,5.31789067 26.2338815,3.71820976 C24.3715224,1.41165877 21.8672249,0.14253923 19.1843652,0.14253923 C16.5015055,0.14253923 13.997208,1.41165877 12.1348488,3.71820976 C10.8421178,5.31789067 9.15241792,6.20037147 7.378602,6.20037147 C5.60478608,6.20037147 3.91508622,5.31789067 2.62235515,3.71820976 C2.11175589,3.08512571 1.18352776,2.983301 0.547492268,3.49832742 C0.208076576,3.77428713 0.0354172896,4.1697802 0.0162329244,4.57560331 L0,4.56970043 L0,25.229786 L0.014757204,25.229786 C-0.0029514408,25.5810075 0.0900189444,25.9396075 0.329085649,26.2347516 C2.19144479,28.5398269 4.69574231,29.8104221 7.378602,29.8104221 C10.0614617,29.8104221 12.5657592,28.5398269 14.4281183,26.2347516 C15.7208494,24.6350707 17.4105493,23.7540656 19.1843652,23.7540656 C20.9581811,23.7540656 22.647881,24.6350707 23.940612,26.2347516 C25.8029712,28.5398269 28.3072687,29.8104221 30.9901284,29.8104221 C33.6729881,29.8104221 36.1772856,28.5398269 38.0396447,26.2347516 C39.3323758,24.6350707 41.0220757,23.7540656 42.7958916,23.7540656 C44.5697075,23.7540656 46.2594074,24.6350707 47.5521384,26.2347516 C49.4144976,28.5398269 51.9187951,29.8104221 54.6016548,29.8104221 C57.2845145,29.8104221 59.788812,28.5398269 61.6511711,26.2347516 C62.9439022,24.6350707 64.6336021,23.7540656 66.407418,23.7540656 C68.1812339,23.7540656 69.8709338,24.6350707 71.1636648,26.2347516 C73.026024,28.5398269 75.5303215,29.8104221 78.2131812,29.8104221 C80.8960409,29.8104221 83.4003384,28.5398269 85.2626975,26.2347516 C85.5017642,25.9396075 85.5947346,25.5810075 85.577026,25.229786 L85.5917832,25.229786 L85.5917832,4.56970043" id="Shape" fill="#67B9CC"></path>
                <path d="M82.969428,24.3782953 C81.6766969,25.9779763 79.9869971,26.8589813 78.2131812,26.8589813 C76.4393652,26.8589813 74.7496654,25.9779763 73.4569343,24.3782953 C71.5945752,22.0717444 69.0902777,20.8026248 66.407418,20.8026248 C63.7245583,20.8026248 61.2202608,22.0717444 59.3579016,24.3782953 C58.0651706,25.9779763 56.3754707,26.8604571 54.6016548,26.8604571 C52.8278389,26.8604571 51.138139,25.9779763 49.8454079,24.3782953 C47.9830488,22.0717444 45.4787513,20.8026248 42.7958916,20.8026248 C40.1130319,20.8026248 37.6087344,22.0717444 35.7463752,24.3782953 C34.4536442,25.9779763 32.7639443,26.8604571 30.9901284,26.8604571 C29.2163125,26.8604571 27.5266126,25.9779763 26.2338815,24.3782953 C24.3715224,22.0717444 21.8672249,20.8026248 19.1843652,20.8026248 C16.5015055,20.8026248 13.997208,22.0717444 12.1348488,24.3782953 C10.8421178,25.9779763 9.15241792,26.8604571 7.378602,26.8604571 C5.60478608,26.8604571 3.91508622,25.9779763 2.62235515,24.3782953 C2.11175589,23.7452113 1.18352776,23.6448623 0.547492268,24.158413 C-0.0855917832,24.670488 -0.18446505,25.6001918 0.329085649,26.2347516 C2.19144479,28.5398269 4.69574231,29.8104221 7.378602,29.8104221 C10.0614617,29.8104221 12.5657592,28.5398269 14.4281183,26.2347516 C15.7208494,24.6350707 17.4105493,23.7540656 19.1843652,23.7540656 C20.9581811,23.7540656 22.647881,24.6350707 23.940612,26.2347516 C25.8029712,28.5398269 28.3072687,29.8104221 30.9901284,29.8104221 C33.6729881,29.8104221 36.1772856,28.5398269 38.0396447,26.2347516 C39.3323758,24.6350707 41.0220757,23.7540656 42.7958916,23.7540656 C44.5697075,23.7540656 46.2594074,24.6350707 47.5521384,26.2347516 C49.4144976,28.5398269 51.9187951,29.8104221 54.6016548,29.8104221 C57.2845145,29.8104221 59.788812,28.5398269 61.6511711,26.2347516 C62.9439022,24.6350707 64.6336021,23.7540656 66.407418,23.7540656 C68.1812339,23.7540656 69.8709338,24.6350707 71.1636648,26.2347516 C73.026024,28.5398269 75.5303215,29.8104221 78.2131812,29.8104221 C80.8960409,29.8104221 83.4003384,28.5398269 85.2626975,26.2347516 C85.7762482,25.6001918 85.677375,24.670488 85.0442909,24.158413 C84.4082554,23.6448623 83.4785516,23.7452113 82.969428,24.3782953" id="Shape" fill="#0096E6"></path>
                <path d="M82.969428,14.0482526 C81.6766969,15.6479335 79.9869971,16.5289385 78.2131812,16.5289385 C76.4393652,16.5289385 74.7496654,15.6479335 73.4569343,14.0482526 C71.5945752,11.7417016 69.0902777,10.472582 66.407418,10.472582 C63.7245583,10.472582 61.2202608,11.7417016 59.3579016,14.0482526 C58.0651706,15.6479335 56.3754707,16.5289385 54.6016548,16.5289385 C52.8278389,16.5289385 51.138139,15.6479335 49.8454079,14.0482526 C47.9830488,11.7417016 45.4787513,10.472582 42.7958916,10.472582 C40.1130319,10.472582 37.6087344,11.7417016 35.7463752,14.0482526 C34.4536442,15.6479335 32.7639443,16.5289385 30.9901284,16.5289385 C29.2163125,16.5289385 27.5266126,15.6479335 26.2338815,14.0482526 C24.3715224,11.7417016 21.8672249,10.472582 19.1843652,10.472582 C16.5015055,10.472582 13.997208,11.7417016 12.1348488,14.0482526 C10.8421178,15.6479335 9.15241792,16.5289385 7.378602,16.5289385 C5.60478608,16.5289385 3.91508622,15.6479335 2.62235515,14.0482526 C2.11175589,13.4151685 1.18352776,13.3133438 0.547492268,13.8298459 C-0.0855917832,14.3404452 -0.18446505,15.270149 0.329085649,15.9047088 C2.19144479,18.2097841 4.69574231,19.4818551 7.378602,19.4818551 C10.0614617,19.4818551 12.5657592,18.2097841 14.4281183,15.9047088 C15.7208494,14.3050279 17.4105493,13.4240228 19.1843652,13.4240228 C20.9581811,13.4240228 22.647881,14.3050279 23.940612,15.9047088 C25.8029712,18.2097841 28.3072687,19.4818551 30.9901284,19.4818551 C33.6729881,19.4818551 36.1772856,18.2097841 38.0396447,15.9047088 C39.3323758,14.3050279 41.0220757,13.4240228 42.7958916,13.4240228 C44.5697075,13.4240228 46.2594074,14.3050279 47.5521384,15.9047088 C49.4144976,18.2097841 51.9187951,19.4818551 54.6016548,19.4818551 C57.2845145,19.4818551 59.788812,18.2097841 61.6511711,15.9047088 C62.9439022,14.3050279 64.6336021,13.4240228 66.407418,13.4240228 C68.1812339,13.4240228 69.8709338,14.3050279 71.1636648,15.9047088 C73.026024,18.2097841 75.5303215,19.4803793 78.2131812,19.4803793 C80.8960409,19.4803793 83.4003384,18.2097841 85.2626975,15.9047088 C85.7762482,15.270149 85.677375,14.3404452 85.0442909,13.8298459 C84.4082554,13.3133438 83.4785516,13.4151685 82.969428,14.0482526" id="Shape" fill="#0096E6"></path>
                <path d="M7.378602,9.15181227 C10.0614617,9.15181227 12.5657592,7.87974128 14.4281183,5.57466602 C15.7208494,3.97498511 17.4105493,3.09398003 19.1843652,3.09398003 C20.9581811,3.09398003 22.647881,3.97498511 23.940612,5.57466602 C25.8029712,7.87974128 28.3072687,9.15181227 30.9901284,9.15181227 C33.6729881,9.15181227 36.1772856,7.87974128 38.0396447,5.57466602 C39.3323758,3.97498511 41.0220757,3.09398003 42.7958916,3.09398003 C44.5697075,3.09398003 46.2594074,3.97498511 47.5521384,5.57466602 C49.4144976,7.87974128 51.9187951,9.15181227 54.6016548,9.15181227 C57.2845145,9.15181227 59.788812,7.87974128 61.6511711,5.57466602 C62.9439022,3.97498511 64.6336021,3.09398003 66.407418,3.09398003 C68.1812339,3.09398003 69.8709338,3.97498511 71.1636648,5.57466602 C73.026024,7.87974128 75.5303215,9.15033655 78.2131812,9.15033655 C80.8960409,9.15033655 83.4003384,7.87974128 85.2626975,5.57466602 C85.7762482,4.94010625 85.677375,4.0104024 85.0442909,3.49832742 C84.4082554,2.983301 83.4785516,3.08512571 82.969428,3.71820976 C81.6766969,5.31789067 79.9869971,6.19889575 78.2131812,6.19889575 C76.4393652,6.19889575 74.7496654,5.31789067 73.4569343,3.71820976 C71.5945752,1.41165877 69.0902777,0.14253923 66.407418,0.14253923 C63.7245583,0.14253923 61.2202608,1.41165877 59.3579016,3.71820976 C58.0651706,5.31789067 56.3754707,6.20037147 54.6016548,6.20037147 C52.8278389,6.20037147 51.138139,5.31789067 49.8454079,3.71820976 C47.9830488,1.41165877 45.4787513,0.14253923 42.7958916,0.14253923 C40.1130319,0.14253923 37.6087344,1.41165877 35.7463752,3.71820976 C34.4536442,5.31789067 32.7639443,6.20037147 30.9901284,6.20037147 C29.2163125,6.20037147 27.5266126,5.31789067 26.2338815,3.71820976 C24.3715224,1.41165877 21.8672249,0.14253923 19.1843652,0.14253923 C16.5015055,0.14253923 13.997208,1.41165877 12.1348488,3.71820976 C10.8421178,5.31789067 9.15241792,6.20037147 7.378602,6.20037147 C5.60478608,6.20037147 3.91508622,5.31789067 2.62235515,3.71820976 C2.11175589,3.08512571 1.18352776,2.983301 0.547492268,3.49832742 C-0.0855917832,4.0104024 -0.18446505,4.94010625 0.329085649,5.57466602 C2.19144479,7.87974128 4.69574231,9.15181227 7.378602,9.15181227" id="Shape" fill="#0096E6"></path>
            </g>
            <g id="12-Water-Polo-Flat@600x600" transform="translate(14.907275, 65.763195) rotate(90.000000) translate(-14.907275, -65.763195) translate(-27.888730, 50.855920)">
                <path d="M85.5917832,4.56970043 L85.5755502,4.57560331 C85.5563659,4.1697802 85.3837066,3.77428713 85.0442909,3.49832742 C84.4082554,2.983301 83.4785516,3.08512571 82.969428,3.71820976 C81.6766969,5.31789067 79.9869971,6.19889575 78.2131812,6.19889575 C76.4393652,6.19889575 74.7496654,5.31789067 73.4569343,3.71820976 C71.5945752,1.41165877 69.0902777,0.14253923 66.407418,0.14253923 C63.7245583,0.14253923 61.2202608,1.41165877 59.3579016,3.71820976 C58.0651706,5.31789067 56.3754707,6.20037147 54.6016548,6.20037147 C52.8278389,6.20037147 51.138139,5.31789067 49.8454079,3.71820976 C47.9830488,1.41165877 45.4787513,0.14253923 42.7958916,0.14253923 C40.1130319,0.14253923 37.6087344,1.41165877 35.7463752,3.71820976 C34.4536442,5.31789067 32.7639443,6.20037147 30.9901284,6.20037147 C29.2163125,6.20037147 27.5266126,5.31789067 26.2338815,3.71820976 C24.3715224,1.41165877 21.8672249,0.14253923 19.1843652,0.14253923 C16.5015055,0.14253923 13.997208,1.41165877 12.1348488,3.71820976 C10.8421178,5.31789067 9.15241792,6.20037147 7.378602,6.20037147 C5.60478608,6.20037147 3.91508622,5.31789067 2.62235515,3.71820976 C2.11175589,3.08512571 1.18352776,2.983301 0.547492268,3.49832742 C0.208076576,3.77428713 0.0354172896,4.1697802 0.0162329244,4.57560331 L0,4.56970043 L0,25.229786 L0.014757204,25.229786 C-0.0029514408,25.5810075 0.0900189444,25.9396075 0.329085649,26.2347516 C2.19144479,28.5398269 4.69574231,29.8104221 7.378602,29.8104221 C10.0614617,29.8104221 12.5657592,28.5398269 14.4281183,26.2347516 C15.7208494,24.6350707 17.4105493,23.7540656 19.1843652,23.7540656 C20.9581811,23.7540656 22.647881,24.6350707 23.940612,26.2347516 C25.8029712,28.5398269 28.3072687,29.8104221 30.9901284,29.8104221 C33.6729881,29.8104221 36.1772856,28.5398269 38.0396447,26.2347516 C39.3323758,24.6350707 41.0220757,23.7540656 42.7958916,23.7540656 C44.5697075,23.7540656 46.2594074,24.6350707 47.5521384,26.2347516 C49.4144976,28.5398269 51.9187951,29.8104221 54.6016548,29.8104221 C57.2845145,29.8104221 59.788812,28.5398269 61.6511711,26.2347516 C62.9439022,24.6350707 64.6336021,23.7540656 66.407418,23.7540656 C68.1812339,23.7540656 69.8709338,24.6350707 71.1636648,26.2347516 C73.026024,28.5398269 75.5303215,29.8104221 78.2131812,29.8104221 C80.8960409,29.8104221 83.4003384,28.5398269 85.2626975,26.2347516 C85.5017642,25.9396075 85.5947346,25.5810075 85.577026,25.229786 L85.5917832,25.229786 L85.5917832,4.56970043" id="Shape" fill="#67B9CC"></path>
                <path d="M82.969428,14.0482526 C81.6766969,15.6479335 79.9869971,16.5289385 78.2131812,16.5289385 C76.4393652,16.5289385 74.7496654,15.6479335 73.4569343,14.0482526 C71.5945752,11.7417016 69.0902777,10.472582 66.407418,10.472582 C63.7245583,10.472582 61.2202608,11.7417016 59.3579016,14.0482526 C58.0651706,15.6479335 56.3754707,16.5289385 54.6016548,16.5289385 C52.8278389,16.5289385 51.138139,15.6479335 49.8454079,14.0482526 C47.9830488,11.7417016 45.4787513,10.472582 42.7958916,10.472582 C40.1130319,10.472582 37.6087344,11.7417016 35.7463752,14.0482526 C34.4536442,15.6479335 32.7639443,16.5289385 30.9901284,16.5289385 C29.2163125,16.5289385 27.5266126,15.6479335 26.2338815,14.0482526 C24.3715224,11.7417016 21.8672249,10.472582 19.1843652,10.472582 C16.5015055,10.472582 13.997208,11.7417016 12.1348488,14.0482526 C10.8421178,15.6479335 9.15241792,16.5289385 7.378602,16.5289385 C5.60478608,16.5289385 3.91508622,15.6479335 2.62235515,14.0482526 C2.11175589,13.4151685 1.18352776,13.3133438 0.547492268,13.8298459 C-0.0855917832,14.3404452 -0.18446505,15.270149 0.329085649,15.9047088 C2.19144479,18.2097841 4.69574231,19.4818551 7.378602,19.4818551 C10.0614617,19.4818551 12.5657592,18.2097841 14.4281183,15.9047088 C15.7208494,14.3050279 17.4105493,13.4240228 19.1843652,13.4240228 C20.9581811,13.4240228 22.647881,14.3050279 23.940612,15.9047088 C25.8029712,18.2097841 28.3072687,19.4818551 30.9901284,19.4818551 C33.6729881,19.4818551 36.1772856,18.2097841 38.0396447,15.9047088 C39.3323758,14.3050279 41.0220757,13.4240228 42.7958916,13.4240228 C44.5697075,13.4240228 46.2594074,14.3050279 47.5521384,15.9047088 C49.4144976,18.2097841 51.9187951,19.4818551 54.6016548,19.4818551 C57.2845145,19.4818551 59.788812,18.2097841 61.6511711,15.9047088 C62.9439022,14.3050279 64.6336021,13.4240228 66.407418,13.4240228 C68.1812339,13.4240228 69.8709338,14.3050279 71.1636648,15.9047088 C73.026024,18.2097841 75.5303215,19.4803793 78.2131812,19.4803793 C80.8960409,19.4803793 83.4003384,18.2097841 85.2626975,15.9047088 C85.7762482,15.270149 85.677375,14.3404452 85.0442909,13.8298459 C84.4082554,13.3133438 83.4785516,13.4151685 82.969428,14.0482526" id="Shape" fill="#0096E6"></path>
                <path d="M7.378602,9.15181227 C10.0614617,9.15181227 12.5657592,7.87974128 14.4281183,5.57466602 C15.7208494,3.97498511 17.4105493,3.09398003 19.1843652,3.09398003 C20.9581811,3.09398003 22.647881,3.97498511 23.940612,5.57466602 C25.8029712,7.87974128 28.3072687,9.15181227 30.9901284,9.15181227 C33.6729881,9.15181227 36.1772856,7.87974128 38.0396447,5.57466602 C39.3323758,3.97498511 41.0220757,3.09398003 42.7958916,3.09398003 C44.5697075,3.09398003 46.2594074,3.97498511 47.5521384,5.57466602 C49.4144976,7.87974128 51.9187951,9.15181227 54.6016548,9.15181227 C57.2845145,9.15181227 59.788812,7.87974128 61.6511711,5.57466602 C62.9439022,3.97498511 64.6336021,3.09398003 66.407418,3.09398003 C68.1812339,3.09398003 69.8709338,3.97498511 71.1636648,5.57466602 C73.026024,7.87974128 75.5303215,9.15033655 78.2131812,9.15033655 C80.8960409,9.15033655 83.4003384,7.87974128 85.2626975,5.57466602 C85.7762482,4.94010625 85.677375,4.0104024 85.0442909,3.49832742 C84.4082554,2.983301 83.4785516,3.08512571 82.969428,3.71820976 C81.6766969,5.31789067 79.9869971,6.19889575 78.2131812,6.19889575 C76.4393652,6.19889575 74.7496654,5.31789067 73.4569343,3.71820976 C71.5945752,1.41165877 69.0902777,0.14253923 66.407418,0.14253923 C63.7245583,0.14253923 61.2202608,1.41165877 59.3579016,3.71820976 C58.0651706,5.31789067 56.3754707,6.20037147 54.6016548,6.20037147 C52.8278389,6.20037147 51.138139,5.31789067 49.8454079,3.71820976 C47.9830488,1.41165877 45.4787513,0.14253923 42.7958916,0.14253923 C40.1130319,0.14253923 37.6087344,1.41165877 35.7463752,3.71820976 C34.4536442,5.31789067 32.7639443,6.20037147 30.9901284,6.20037147 C29.2163125,6.20037147 27.5266126,5.31789067 26.2338815,3.71820976 C24.3715224,1.41165877 21.8672249,0.14253923 19.1843652,0.14253923 C16.5015055,0.14253923 13.997208,1.41165877 12.1348488,3.71820976 C10.8421178,5.31789067 9.15241792,6.20037147 7.378602,6.20037147 C5.60478608,6.20037147 3.91508622,5.31789067 2.62235515,3.71820976 C2.11175589,3.08512571 1.18352776,2.983301 0.547492268,3.49832742 C-0.0855917832,4.0104024 -0.18446505,4.94010625 0.329085649,5.57466602 C2.19144479,7.87974128 4.69574231,9.15181227 7.378602,9.15181227" id="Shape" fill="#0096E6"></path>
            </g>
            <g id="92-Graph-Flat" transform="translate(6.276748, 0.000000)">
                <polyline id="Shape" fill="#71C285" points="0 20.3032213 12.0363766 14.9288392 20.0606277 19.7060677 29.4222539 10.7487642 37.446505 15.5259928 52.157632 5.37438211 60.181883 10.1516107 74.89301 0 74.89301 25.6776034 0 25.6776034 0 20.3032213"></polyline>
                <polyline id="Shape" stroke="#F0C419" stroke-width="3.5999999" points="0 20.256776 12.0363766 14.8946883 20.0606277 19.6609885 29.4222539 10.7241755 37.446505 15.4904758 52.157632 5.36208777 60.181883 10.128388 74.89301 0"></polyline>
            </g>
        </g>
    </g>
</svg>